<svg width="492" height="74" viewBox="0 0 492 74" fill="none" xmlns="http://www.w3.org/2000/svg">
<path d="M124 3V3C124 17.9117 111.912 30 97 30L-1.18021e-06 30V30C-5.28397e-07 15.0883 12.0883 3 27 3L124 3Z" fill="white"/>
<path d="M84 44V44C84 59.464 71.464 72 56 72L-1.22392e-06 72V72C-5.47967e-07 56.536 12.536 44 28 44L84 44Z" fill="white" fill-opacity="0.6"/>
<path d="M248.7 20.95C253.3 20.95 257.433 21.8833 261.1 23.75C264.7 25.6833 267.533 28.35 269.6 31.75C271.6 35.15 272.6 39.1166 272.6 43.65V73.15H263.3L263.3 43.75C263.3 40.6833 262.633 38.0166 261.3 35.75C259.967 33.55 258.2 31.85 256 30.65C253.733 29.45 251.333 28.85 248.8 28.85C246.2 28.85 243.8 29.45 241.6 30.65C239.333 31.85 237.533 33.55 236.2 35.75C234.8 38.0166 234.1 40.6833 234.1 43.75V73.15L224.8 73.15L224.8 43.65C224.8 39.1167 225.833 35.15 227.9 31.75C229.967 28.35 232.8 25.6833 236.4 23.75C240 21.8833 244.1 20.95 248.7 20.95Z" fill="white"/>
<path d="M399.7 20.95C404.3 20.95 408.433 21.8833 412.1 23.75C415.7 25.6833 418.533 28.35 420.6 31.75C422.6 35.15 423.6 39.1166 423.6 43.65L423.6 73.15H414.3V43.75C414.3 40.6833 413.633 38.0166 412.3 35.75C410.967 33.55 409.2 31.85 407 30.65C404.733 29.45 402.333 28.85 399.8 28.85C397.2 28.85 394.8 29.45 392.6 30.65C390.333 31.85 388.533 33.55 387.2 35.75C385.8 38.0166 385.1 40.6833 385.1 43.75V73.15L375.8 73.15V43.65C375.8 39.1167 376.833 35.15 378.9 31.75C380.967 28.35 383.8 25.6833 387.4 23.75C391 21.8833 395.1 20.95 399.7 20.95Z" fill="white"/>
<path d="M148 72.15V2.14999H191.25C191.25 7.81091 186.661 12.4 181 12.4H159.2V32.55H188.25C188.25 38.0728 183.773 42.55 178.25 42.55H159.2V62.15C159.2 67.6728 154.723 72.15 149.2 72.15H148Z" fill="white"/>
<path d="M201.55 72.15V22.65H202.55C208.073 22.65 212.55 27.1271 212.55 32.65V72.15H201.55ZM207.05 13.8C205.083 13.8 203.383 13.1667 201.95 11.9C200.517 10.6333 199.8 8.96666 199.8 6.89999C199.8 4.86666 200.517 3.21665 201.95 1.94998C203.383 0.649981 205.083 0 207.05 0C209.017 0 210.717 0.649981 212.15 1.94998C213.583 3.21665 214.3 4.86666 214.3 6.89999C214.3 8.96666 213.583 10.6333 212.15 11.9C210.717 13.1667 209.017 13.8 207.05 13.8Z" fill="white"/>
<path d="M303.35 73.65C298.517 73.65 294.65 72.25 291.75 69.45C288.85 66.65 287.4 62.3667 287.4 56.6V8.19998H298.4V22.65H312.15C312.15 27.6758 308.076 31.75 303.05 31.75H298.4V54.2C298.4 57.6666 299.05 60.1166 300.35 61.55C301.683 62.95 303.55 63.65 305.95 63.65C307.117 63.65 308.217 63.5166 309.25 63.25C310.283 62.9833 311.217 62.6333 312.05 62.2L314 71.1C312.567 71.8333 310.917 72.4333 309.05 72.9C307.217 73.4 305.317 73.65 303.35 73.65ZM276.55 31.75V22.65H288.85V31.75H276.55Z" fill="white"/>
<path d="M344.15 73.65C338.817 73.65 334.133 72.5666 330.1 70.4C326.067 68.2 322.917 65.1333 320.65 61.2C318.417 57.2667 317.3 52.7 317.3 47.5C317.3 43.7 317.95 40.2 319.25 37C320.55 33.7666 322.383 30.9667 324.75 28.6C327.117 26.2333 329.883 24.4 333.05 23.1C336.25 21.8 339.733 21.15 343.5 21.15C347.6 21.15 351.25 21.8833 354.45 23.35C357.65 24.7833 360.3 26.8 362.4 29.4C364.533 32 366.033 35.05 366.9 38.55C367.8 42.0167 367.95 45.7833 367.35 49.85H327.85C327.783 52.8166 328.433 55.4166 329.8 57.65C331.167 59.85 333.117 61.5666 335.65 62.8C338.217 64.0333 341.233 64.65 344.7 64.65C347.5 64.65 350.2 64.2333 352.8 63.4C355.433 62.5333 357.817 61.2667 359.95 59.6L364.2 67.5C362.6 68.8 360.667 69.9166 358.4 70.85C356.133 71.75 353.767 72.4333 351.3 72.9C348.833 73.4 346.45 73.65 344.15 73.65ZM328.5 41.75H356.55C356.45 38.0166 355.25 35.0833 352.95 32.95C350.683 30.8167 347.45 29.75 343.25 29.75C339.183 29.75 335.8 30.8167 333.1 32.95C330.433 35.0833 328.9 38.0166 328.5 41.75Z" fill="white"/>
<path d="M454.35 73.65C449.517 73.65 445.65 72.25 442.75 69.45C439.85 66.65 438.4 62.3667 438.4 56.6V8.19998H449.4V22.65H463.15C463.15 27.6758 459.076 31.75 454.05 31.75H449.4V54.2C449.4 57.6666 450.05 60.1166 451.35 61.55C452.683 62.95 454.55 63.65 456.95 63.65C458.117 63.65 459.217 63.5166 460.25 63.25C461.283 62.9833 462.217 62.6333 463.05 62.2L465 71.1C463.567 71.8333 461.917 72.4333 460.05 72.9C458.217 73.4 456.317 73.65 454.35 73.65ZM427.55 31.75V22.65H439.85V31.75H427.55Z" fill="white"/>
</svg>
